<svg xmlns="http://www.w3.org/2000/svg" width="174" height="46" viewBox="0 0 174 46">
    <g fill="none" fill-rule="evenodd">
        <path fill="#000" d="M13.776 37.945l-11.58-.013.013-11.58 11.58.013z"/>
        <path fill="#74B027" d="M41.776 38.418h-5.178v-18.04h18.628v18.04h-5.175V23.88h-8.275zM57.734 24.975v17.862H62.5v-6.112c1.597 1.707 4.2 1.837 4.83 1.837 4.546 0 7.335-2.857 7.335-7.016 0-4.327-2.758-7.061-7.243-7.061-1.128 0-3.325.18-5.139 2.06h-.099l.035-1.57h-4.485zm4.55 6.523c0-3.66 2.285-4.377 3.725-4.377 1.413 0 3.702.717 3.702 4.377 0 2.267-.969 4.434-3.702 4.434-2.789 0-3.726-2.167-3.726-4.434zM86.487 36.498c-1.756 1.628-3.451 2.064-5.33 2.064-5.141 0-5.334-3.815-5.334-5.386v-8.201h4.768v7.582c0 2.601.913 3.376 2.667 3.376 3.012 0 3.229-2.658 3.229-3.613v-7.345h4.762v13.094h-4.762v-1.571zM98.085 32.557h2.917c2.257 0 2.73.664 2.73 1.542 0 .57-.314 1.34-2.666 1.34h-2.98v-2.882zm-4.762-7.582V38.07h9.465c3.452 0 5.834-.67 5.834-3.343 0-2.068-1.162-2.972-3.796-3.433v-.079c1.723-.23 3.23-1.293 3.23-3.069 0-3.17-3.764-3.17-5.234-3.17h-9.499zm4.762 2.63h2.571c1.352 0 2.509.205 2.509 1.289 0 1.185-1.817 1.213-2.6 1.213h-2.48v-2.503zM114.645 29.204c0-1.934 2.062-2.083 2.912-2.083.535 0 2.512.025 2.57 1.726v.357c-.092 1.292-1.345 1.027-4.858 1.47-2.888.385-5.923 1.109-5.923 4.098 0 1.084.466 3.79 5.547 3.79 1.945 0 4.075-.492 5.33-1.783h.095l.406 1.29h5.013v-.227c-.906-.184-.964-1.063-.935-2.475l.094-5.983c.03-1.52-.123-4.899-7.309-4.899-1.72 0-7.272.155-7.491 4.719h4.549zm5.517 3.454c0 2.63-2.32 3.275-3.486 3.275-.87 0-2.441-.285-2.441-1.524 0-1.469 1.786-1.75 2.791-1.877 1.849-.262 1.694-.187 3.136-.701v.827zM125.428 27.604v-2.63h15.302v2.63h-5.266V38.07h-4.77V27.604z"/>
        <path fill="#363636" d="M2 38.12h11.941V26.34H2z"/>
        <path fill="#74B027" d="M26.219 14.226v17.668h-2.43C22.735 23.158 17.17 17.67 8.312 16.629v-2.403H26.22zM2 8v14.656h3.157c8.305 0 12.52 4.155 12.52 12.35v3.113h14.856V8H2z"/>
        <text fill="#363636" font-family="Arial-BoldMT, Arial" font-size="27" font-weight="bold">
            <tspan x="141" y="38">24</tspan>
        </text>
    </g>
</svg>
